<?xml version="1.0" encoding="utf-8"?>
<!-- Generator: Adobe Illustrator 19.2.1, SVG Export Plug-In . SVG Version: 6.00 Build 0)  -->
<svg version="1.1" id="layer" xmlns="http://www.w3.org/2000/svg" xmlns:xlink="http://www.w3.org/1999/xlink" x="0px" y="0px"
	 viewBox="0 0 652 652" style="enable-background:new 0 0 652 652;" xml:space="preserve">
<style type="text/css">
	.st0{fill:#231F20;}
	.st1{fill:#151011;}
</style>
<g>
	<g>
		<path class="st0" d="M177.8,310.2c-1.2-2.9-2.9-4.9-5.2-6.9c-2.3-1.7-4.9-3.2-8.1-4c-3.2-0.9-6.6-1.2-10.4-1.2
			c-5.5,0-9.8,0.9-13,2.3c-3.2,1.4-5.5,3.2-6.9,5.2s-2.6,3.8-2.9,5.5s-0.6,3.2-0.6,3.8c0,3.8,0.9,6.9,2.3,8.9c1.7,2,3.8,3.8,6.3,4.9
			c2.9,1.2,5.8,2,8.9,2.9c3.2,0.9,6.9,1.7,11.3,2.9c3.2,0.9,6.1,1.7,9.2,2.6c2.9,0.9,5.8,2,8.1,3.5c2.3,1.4,4.3,3.5,5.8,5.8
			c1.4,2.3,2.3,5.5,2.3,9.2c0,4-0.9,7.5-2.6,10.1c-1.7,2.9-3.8,4.9-6.6,6.6s-5.8,2.9-9.2,3.8c-3.5,0.9-6.9,1.2-10.1,1.2
			c-10.7,0-18.5-2.3-23.9-6.9c-5.5-4.6-8.1-11.8-8.1-21.9h3.2c0,8.9,2.6,15.3,7.5,19.6c4.9,4,12.1,6.3,21.3,6.3
			c2.9,0,5.8-0.3,8.9-0.9c2.9-0.6,5.8-1.7,8.1-3.2c2.6-1.4,4.6-3.5,6.1-5.8c1.7-2.3,2.3-5.2,2.3-8.7s-0.9-6.3-2.3-8.4
			s-3.7-3.8-6.3-5.2s-5.5-2.6-8.7-3.2c-3.2-0.9-6.6-1.7-10.1-2.6c-3.8-0.9-7.2-1.7-10.1-2.6s-5.5-1.7-7.8-2.9
			c-3.2-1.4-5.8-3.5-7.2-6.1c-1.4-2.6-2.3-6.1-2.3-10.4c0-2,0.6-4.3,1.4-6.6c0.9-2.3,2.6-4.6,4.6-6.3c2-2,4.9-3.5,8.4-4.6
			c3.5-1.2,7.5-1.7,12.4-1.7c8.9,0,15.9,2,20.8,6.1c5.2,4,7.8,10.4,7.8,19.3h-3.2C179.5,316.2,178.9,312.8,177.8,310.2z"/>
		<path class="st0" d="M204.6,360.4c0,2.9,0.3,5.2,0.9,6.9c0.6,1.7,1.4,2.9,2.6,3.8c1.2,0.9,2,1.4,3.5,1.4c1.2,0.3,2.6,0.3,3.8,0.3
			c1.4,0,2.9,0,4,0s2-0.3,2.6-0.3v3.2c-0.9,0-1.7,0.3-2.6,0.3s-2.6,0.3-4.9,0.3c-3.5,0-6.6-1.2-9.2-3.2c-2.6-2-3.8-6.1-3.8-11.5
			v-61.7H187v-3.2h14.4v-24.5h3.2v24.8h17.9v3.2h-17.9V360.4z"/>
		<path class="st0" d="M225.4,320.8c1.4-4.9,3.8-9.2,6.9-13c2.9-3.8,6.6-6.9,11.3-9.2c4.3-2.3,9.5-3.5,15.3-3.5
			c5.8,0,10.7,1.2,15.3,3.5c4.3,2.3,8.1,5.5,11.3,9.2c3.2,3.8,5.2,8.1,6.9,13c1.4,4.9,2.3,10.1,2.3,15.6s-0.9,10.7-2.3,15.6
			c-1.4,4.9-3.8,9.2-6.9,13c-2.9,3.8-6.6,6.9-11.3,8.9c-4.6,2-9.5,3.5-15.3,3.5c-5.8,0-10.7-1.2-15.3-3.5c-4.6-2.3-8.1-5.2-11.3-8.9
			c-2.9-3.8-5.2-8.1-6.9-13c-1.4-4.9-2.3-10.1-2.3-15.6C223.1,330.9,223.9,325.7,225.4,320.8z M228.3,350.8
			c1.4,4.6,3.5,8.7,6.3,12.1s6.1,6.3,10.1,8.4s8.7,3.2,14.1,3.2c5.2,0,9.8-1.2,13.8-3.2s7.5-4.9,10.1-8.4c2.9-3.5,4.9-7.5,6.3-12.1
			c1.4-4.6,2-9.5,2-14.4s-0.6-9.8-2-14.1c-1.4-4.6-3.5-8.7-6.3-12.1s-6.1-6.3-10.1-8.7c-4-2.3-8.7-3.2-13.8-3.2s-10.1,1.2-14.1,3.2
			s-7.5,4.9-10.1,8.7c-2.9,3.5-4.9,7.5-6.3,12.1s-2,9.2-2,14.1S226.8,346.2,228.3,350.8z"/>
		<path class="st0" d="M309.9,296.9v19.3h0.3c0.6-3.2,1.7-5.8,3.5-8.4c1.7-2.6,3.5-4.9,6.1-6.6c2.3-2,5.2-3.5,8.4-4.6
			c3.2-1.2,6.6-1.7,10.7-1.7s7.8,0.6,11.3,1.7c3.5,1.2,6.3,3.2,8.9,5.5c2.6,2.3,4.3,5.5,5.8,8.9c1.4,3.5,2,7.5,2,12.1v52.2h-3.2
			v-51.9c0-4.6-0.6-8.7-2-11.8c-1.4-3.2-3.2-5.8-5.5-8.1c-2.3-2.3-4.9-3.8-8.1-4.6c-2.9-0.9-6.3-1.4-9.5-1.4
			c-4.6,0-8.9,0.9-12.4,2.6c-3.5,1.7-6.6,4.3-8.9,7.2c-2.3,2.9-4.3,6.6-5.5,10.4c-1.2,4-1.7,8.1-1.7,12.7v44.7h-3.2v-78.2H309.9z"/>
		<path class="st0" d="M384,351.7c1.2,4.6,2.9,8.7,5.5,11.8c2.6,3.5,5.8,6.1,9.5,8.1s8.7,2.9,14.1,2.9c8.4,0,15.3-2.3,20.8-6.6
			c5.5-4.3,8.9-11,10.1-19.6h3.2c-1.2,9.2-4.6,16.4-11,21.3c-6.1,5.2-13.8,7.5-22.8,7.5c-6.1,0-11.2-0.9-15.9-2.9
			c-4.3-2-7.8-4.9-10.7-8.7c-2.9-3.8-4.9-8.1-6.1-13.3c-1.2-5.2-2-10.4-2-16.4c0-6.6,0.9-12.4,2.9-17.6c2-5.2,4.6-9.5,7.8-13
			c3.2-3.5,6.9-6.3,11-8.1c4.3-1.7,8.4-2.9,13-2.9c6.1,0,11.5,1.2,15.9,3.5c4.3,2.3,8.1,5.5,11,9.2s4.9,8.4,6.1,13.3
			c1.2,4.9,1.7,10.1,1.7,15.6H382C382.3,342.2,382.9,347.1,384,351.7z M442.9,320c-1.4-4.3-3.2-8.1-5.8-11.5
			c-2.6-3.2-5.8-5.8-9.8-7.8c-3.8-2-8.4-2.9-13.6-2.9c-4.3,0-8.4,0.9-12.1,2.6c-3.8,1.7-6.9,4-9.8,7.2s-5.2,6.9-6.9,11.3
			c-1.7,4.3-2.9,9.2-3.2,15h62.9C444.9,328.9,444.3,324.3,442.9,320z"/>
		<path class="st0" d="M487,360.4c0,2.9,0.3,5.2,0.9,6.9c0.6,1.7,1.4,2.9,2.6,3.8s2,1.4,3.5,1.4c1.2,0.3,2.6,0.3,3.8,0.3
			c1.4,0,2.9,0,4,0c1.2,0,2-0.3,2.6-0.3v3.2c-0.9,0-1.7,0.3-2.6,0.3c-0.9,0-2.6,0.3-4.9,0.3c-3.5,0-6.6-1.2-9.2-3.2
			c-2.6-2-3.8-6.1-3.8-11.5v-61.7h-14.4v-3.2h14.4v-24.5h3.2v24.8h17.9v3.2H487V360.4z"/>
		<path class="st0" d="M515.6,281.6V266h3.2v15.6H515.6z M515.6,375.7v-78.7h3.2v78.7H515.6z"/>
		<path class="st0" d="M538.7,266v109.6h-3.2V266C535.5,266,538.7,266,538.7,266z"/>
		<path class="st0" d="M556,351.7c1.2,4.6,2.9,8.7,5.5,11.8c2.6,3.5,5.8,6.1,9.5,8.1s8.7,2.9,14.1,2.9c8.4,0,15.3-2.3,20.8-6.6
			c5.5-4.3,8.9-11,10.1-19.6h3.2c-1.2,9.2-4.6,16.4-11,21.3c-6.1,5.2-13.8,7.5-22.8,7.5c-6.1,0-11.3-0.9-15.9-2.9
			c-4.3-2-7.8-4.9-10.7-8.7s-4.9-8.1-6.1-13.3c-1.2-5.2-2-10.1-2-15.9c0-6.6,0.9-12.4,2.9-17.6c2-5.2,4.6-9.5,7.8-13
			c3.2-3.5,6.9-6.3,11-8.1c4.3-1.7,8.4-2.9,13-2.9c6.1,0,11.5,1.2,15.9,3.5c4.3,2.3,8.1,5.5,11,9.2c2.9,3.8,4.9,8.4,6.1,13.3
			c1.2,4.9,1.7,10.1,1.7,15.6h-66.1C553.9,342.2,554.8,347.1,556,351.7z M614.8,320c-1.4-4.3-3.2-8.1-5.8-11.5
			c-2.6-3.2-5.8-5.8-9.8-7.8c-3.8-2-8.4-2.9-13.6-2.9c-4.3,0-8.4,0.9-12.1,2.6c-3.8,1.7-6.9,4-9.8,7.2c-2.9,3.2-5.2,6.9-6.9,11.3
			c-1.7,4.3-2.9,9.2-3.2,15h62.9C616.8,328.9,616.2,324.3,614.8,320z"/>
	</g>
	<rect x="20" y="298.9" class="st1" width="79" height="79"/>
</g>
</svg>
